<?xml version="1.0" encoding="utf-8"?>
<!-- Generator: Adobe Illustrator 25.4.1, SVG Export Plug-In . SVG Version: 6.00 Build 0)  -->
<svg version="1.1" id="Layer_1" xmlns="http://www.w3.org/2000/svg" xmlns:xlink="http://www.w3.org/1999/xlink" x="0px" y="0px"
	 viewBox="0 0 11.6 25" style="enable-background:new 0 0 11.6 25;" xml:space="preserve">
<style type="text/css">
	.st0{fill:#FF00AA;stroke:#FF00B7;stroke-width:1.451773e-02;stroke-miterlimit:10;}
</style>
<path class="st0" d="M11.4,8.3c-0.2-0.7-0.8-1.2-1.7-1.3c0.2-0.4,0.4-1.1,0.2-1.8C9.5,3.9,8.4,3.9,7.7,3.9C8,3.4,8.3,2.6,8.1,1.8
	C7.9,1.2,7.5,0.5,6.3,0.2C5.5,0,4.8,0,4.4,0C4.2,0,4,0.2,4,0.4c0,0.2,0.1,0.4,0.3,0.4C4.6,0.9,4.9,1.1,5,1.5C5.1,2,5,2.7,2.6,3.8
	C1.8,4.1,1.3,4.6,1.2,5.2C1,6,1.3,6.7,1.6,7.2C1.3,7.3,1,7.4,0.8,7.6C0.3,7.9,0,8.4,0,9c0,0.7,0.2,1.2,0.5,1.5
	c0,0.1-0.1,0.2-0.1,0.3v0.5c0,0.9,0.6,1.6,1.4,1.8l0.5,1.9c0,0,0,0,0,0l1.7,6.4c0,0,0,0,0,0l0.8,2.9C5,24.7,5.3,25,5.8,25
	c0.4,0,0.8-0.3,0.9-0.7l3-11.2c0.8-0.2,1.4-1,1.4-1.8v-0.5c0-0.1,0-0.2-0.1-0.3C11.4,10.1,11.8,9.4,11.4,8.3z M6,24.1
	c0,0.1-0.2,0.2-0.2,0.2s-0.2,0-0.2-0.2L5,22c0.5,0.2,0.9,0.4,1.4,0.5L6,24.1z M7.2,19.5c-0.1,0-0.2-0.1-0.3-0.1
	c-0.2-0.1-0.4,0-0.5,0.2s0,0.4,0.2,0.5c0.1,0.1,0.3,0.1,0.4,0.1l-0.4,1.6c-0.6-0.2-1.2-0.5-1.8-0.7L4.2,19c0.3,0.1,0.5,0.3,0.8,0.4
	c0.1,0,0.1,0,0.2,0c0.1,0,0.3-0.1,0.3-0.2c0.1-0.2,0-0.4-0.2-0.5c-0.5-0.2-0.9-0.4-1.4-0.7l-0.6-2.2c1.3,0.8,2.8,1.6,4.3,2.1
	L7.2,19.5z M7.8,17.2c-1.7-0.6-3.3-1.5-4.8-2.5l-0.4-1.6h0.9c1.4,1,3,1.9,4.6,2.5L7.8,17.2z M8.4,15c-1.3-0.5-2.4-1.1-3.5-1.8h4
	L8.4,15z"/>
</svg>
